<?xml version="1.0" standalone="no"?><!DOCTYPE svg PUBLIC "-//W3C//DTD SVG 1.1//EN" "http://www.w3.org/Graphics/SVG/1.1/DTD/svg11.dtd"><svg width="100%" height="100%" viewBox="0 0 3402 2268" version="1.1" xmlns="http://www.w3.org/2000/svg" xmlns:xlink="http://www.w3.org/1999/xlink" xml:space="preserve" style="fill-rule:evenodd;clip-rule:evenodd;stroke-linejoin:round;stroke-miterlimit:1.41421;"><g id="Layer1"><path d="M315.474,1296.55l-55.078,0l0,-230.746l-27.451,0l0,-230.746l27.451,0l0,-115.739c0,-95.228 -8.101,-176.539 -24.304,-243.931c-16.086,-67.881 -35.552,-101.821 -58.399,-101.821c-22.498,0 -41.906,34.184 -58.225,102.553c-16.203,67.881 -24.304,148.947 -24.304,243.199l0,115.739l27.451,0l0,230.746l-27.451,0l0,230.746l-55.078,0l0,-577.231c0,-158.226 13.463,-293.743 40.39,-406.552c27.044,-113.298 59.449,-169.946 97.217,-169.946c37.884,0 70.289,56.648 97.216,169.946c27.043,112.809 40.565,248.326 40.565,406.552l0,577.231ZM205.319,950.063c0,30.766 -2.798,57.87 -8.393,81.311c-5.479,22.952 -11.89,34.428 -19.233,34.428c-7.344,0 -13.755,-11.476 -19.234,-34.428c-5.478,-23.93 -8.218,-51.033 -8.218,-81.311c0,-31.254 2.681,-58.114 8.043,-80.578c5.479,-22.952 11.948,-34.429 19.409,-34.429c7.46,0 13.929,11.477 19.408,34.429c5.478,22.953 8.218,49.812 8.218,80.578Z" style="fill:#fff;fill-rule:nonzero;"/><path d="M728.643,719.317c0,30.278 -2.739,57.381 -8.218,81.311c-5.478,22.952 -11.889,34.428 -19.233,34.428c-7.227,0 -13.697,-11.476 -19.408,-34.428c-5.479,-23.93 -8.218,-51.033 -8.218,-81.311c0,-31.254 2.681,-58.114 8.043,-80.578c5.478,-22.952 12.006,-34.428 19.583,-34.428c7.344,0 13.755,11.476 19.233,34.428c5.479,22.953 8.218,49.812 8.218,80.578ZM838.798,1296.55l-55.077,0l0,-577.231c0,-95.228 -8.102,-176.539 -24.304,-243.931c-16.086,-67.881 -35.495,-101.821 -58.225,-101.821c-22.731,0 -42.255,34.184 -58.575,102.553c-16.086,68.37 -24.129,149.436 -24.129,243.199l0,577.231l-55.078,0l0,-577.231c0,-95.228 -8.101,-176.539 -24.304,-243.931c-16.086,-67.881 -35.552,-101.821 -58.399,-101.821c-22.614,0 -42.081,34.184 -58.4,102.553c-16.086,68.37 -24.129,149.436 -24.129,243.199l0,577.231l-55.078,0l0,-577.231c0,-158.226 13.464,-293.743 40.39,-406.552c27.044,-113.298 59.449,-169.946 97.217,-169.946c21.331,0 41.789,20.51 61.372,61.532c19.7,41.021 36.019,97.426 48.958,169.214c12.705,-71.3 28.85,-127.704 48.433,-169.214c19.583,-41.022 40.157,-61.532 61.722,-61.532c37.767,0 70.115,56.648 97.041,169.946c27.044,112.809 40.565,248.326 40.565,406.552l0,577.231ZM508.333,719.317c0,30.766 -2.798,57.87 -8.393,81.311c-5.478,22.952 -11.89,34.428 -19.233,34.428c-7.344,0 -13.755,-11.476 -19.234,-34.428c-5.478,-23.93 -8.218,-51.033 -8.218,-81.311c0,-31.254 2.681,-58.114 8.043,-80.578c5.479,-22.952 11.948,-34.428 19.409,-34.428c7.46,0 13.929,11.476 19.408,34.428c5.479,22.953 8.218,49.812 8.218,80.578Z" style="fill:#fff;fill-rule:nonzero;"/><path d="M1141.81,950.063c0,95.229 -8.16,177.027 -24.479,245.397c-16.32,67.392 -35.67,101.088 -58.05,101.088l-192.859,0l0,-1153.73l192.859,0c22.73,0 42.138,33.94 58.224,101.821c16.203,67.392 24.305,148.703 24.305,243.931c0,88.392 -7.053,165.307 -21.157,230.746c14.104,66.416 21.157,143.331 21.157,230.746ZM1086.74,950.063c0,-30.766 -2.739,-57.625 -8.218,-80.578c-5.479,-22.952 -11.89,-34.429 -19.233,-34.429l-27.627,0l0,-230.745l27.627,0c7.46,0 13.871,-11.233 19.233,-33.697c5.479,-22.952 8.218,-50.3 8.218,-82.043c0,-30.766 -2.739,-57.625 -8.218,-80.578c-5.479,-22.952 -11.89,-34.428 -19.233,-34.428l-137.782,0l0,692.237l137.782,0c7.343,0 13.754,-11.476 19.233,-34.428c5.479,-23.93 8.218,-51.033 8.218,-81.311ZM1004.03,719.317c0,32.231 -2.681,59.579 -8.043,82.043c-5.362,22.464 -11.831,33.696 -19.408,33.696c-7.227,0 -13.697,-11.476 -19.409,-34.428c-5.478,-23.93 -8.217,-51.033 -8.217,-81.311c0,-30.766 2.739,-57.625 8.217,-80.578c5.712,-22.952 12.182,-34.428 19.409,-34.428c7.46,0 13.929,11.476 19.408,34.428c5.362,22.464 8.043,49.324 8.043,80.578Z" style="fill:#fff;fill-rule:nonzero;"/><path d="M1224.52,257.825c0,30.766 -2.797,57.87 -8.392,81.311c-5.479,22.952 -11.89,34.429 -19.234,34.429c-7.344,0 -13.755,-11.477 -19.233,-34.429c-5.479,-23.929 -8.218,-51.033 -8.218,-81.311c0,-30.766 2.739,-57.625 8.218,-80.578c5.478,-22.952 11.889,-34.428 19.233,-34.428c7.46,0 13.93,11.476 19.408,34.428c5.479,22.953 8.218,49.812 8.218,80.578ZM1224.52,1296.55l-55.077,0l0,-807.977l55.077,0l0,807.977Z" style="fill:#fff;fill-rule:nonzero;"/><path d="M1520.71,719.317c0,30.766 -2.797,57.87 -8.392,81.311c-5.479,22.952 -11.89,34.428 -19.234,34.428c-7.577,0 -14.046,-11.232 -19.408,-33.696c-5.362,-22.464 -8.043,-49.812 -8.043,-82.043c0,-31.254 2.681,-58.114 8.043,-80.578c5.478,-22.952 11.948,-34.428 19.408,-34.428c7.344,0 13.755,11.476 19.234,34.428c5.595,22.953 8.392,49.812 8.392,80.578ZM1520.71,1296.55l-137.781,0c-37.768,0 -70.173,-56.404 -97.216,-169.213c-27.044,-113.298 -40.565,-249.304 -40.565,-408.018c0,-158.226 13.521,-293.743 40.565,-406.552c27.043,-113.298 59.448,-169.946 97.216,-169.946l137.781,0l0,230.746l-137.781,0c-17.252,0 -33.105,21.487 -47.559,64.462c-14.338,42.487 -24.479,97.914 -30.424,166.284l133.061,0l0,230.745l-133.061,0c5.945,68.37 16.086,124.042 30.424,167.017c14.454,42.486 30.307,63.729 47.559,63.729l137.781,0l0,230.746Z" style="fill:#fff;fill-rule:nonzero;"/><path d="M1823.73,1296.55l-55.077,0l0,-577.231c0,-95.228 -8.101,-176.539 -24.304,-243.931c-16.086,-67.881 -35.553,-101.821 -58.4,-101.821c-22.73,0 -42.197,33.94 -58.4,101.821c-16.086,67.392 -24.129,148.703 -24.129,243.931l0,577.231l-55.077,0l0,-577.231c0,-158.226 13.463,-293.743 40.39,-406.552c27.043,-113.298 59.449,-169.946 97.216,-169.946c37.884,0 70.29,56.648 97.216,169.946c27.044,112.809 40.565,248.326 40.565,406.552l0,577.231ZM1713.57,719.317c0,30.766 -2.797,57.87 -8.392,81.311c-5.479,22.952 -11.89,34.428 -19.234,34.428c-7.344,0 -13.755,-11.476 -19.233,-34.428c-5.479,-23.93 -8.218,-51.033 -8.218,-81.311c0,-31.254 2.681,-58.114 8.043,-80.578c5.478,-22.952 11.948,-34.428 19.408,-34.428c7.46,0 13.93,11.476 19.408,34.428c5.479,22.953 8.218,49.812 8.218,80.578Z" style="fill:#fff;fill-rule:nonzero;"/><path d="M2005.57,27.079c0,30.278 -2.798,57.138 -8.393,80.578c-5.595,23.441 -12.006,35.162 -19.233,35.162c-7.344,0 -13.755,-11.477 -19.234,-34.429c-5.478,-23.929 -8.218,-51.033 -8.218,-81.311c0,-30.766 2.74,-57.625 8.218,-80.577c5.479,-22.953 11.89,-34.429 19.234,-34.429c7.343,0 13.755,11.476 19.233,34.429c5.595,22.952 8.393,49.811 8.393,80.577ZM2115.72,373.565l-55.078,0c-14.92,0 -27.859,22.952 -38.816,68.857c-10.841,45.417 -16.261,99.38 -16.261,161.889l0,692.237l-55.078,0l0,-692.237c0,-62.509 -5.478,-116.472 -16.436,-161.889c-10.957,-45.905 -23.837,-68.857 -38.641,-68.857l-55.078,0l0,-230.746l55.078,0c32.871,0 60.381,52.253 82.529,156.76c22.147,-104.507 49.715,-156.76 82.703,-156.76l55.078,0l0,230.746Z" style="fill:#fff;fill-rule:nonzero;"/><path d="M2165.22,2111.21l-55.064,0l0,-80.403c0,-66.154 -8.099,-122.64 -24.298,-169.457c-16.082,-47.157 -35.543,-70.735 -58.384,-70.735c-22.492,0 -41.895,23.748 -58.21,71.243c-16.199,47.157 -24.298,103.473 -24.298,168.949l0,80.403l-55.064,0l0,-801.488l55.064,0l0,400.49c24.589,-53.263 52.091,-79.895 82.508,-79.895c30.532,0 58.093,26.632 82.682,79.895l0,-400.49l55.064,0l0,801.488ZM2055.09,2030.81c0,21.373 -2.797,40.202 -8.391,56.486c-5.477,15.945 -11.887,23.917 -19.228,23.917c-7.342,0 -13.752,-7.972 -19.229,-23.917c-5.477,-16.624 -8.216,-35.452 -8.216,-56.486c0,-21.712 2.681,-40.371 8.041,-55.977c5.477,-15.945 11.945,-23.917 19.404,-23.917c7.458,0 13.926,7.972 19.403,23.917c5.477,15.945 8.216,34.604 8.216,55.977Z" style="fill:#fff;fill-rule:nonzero;"/><path d="M2461.33,1710.22c0,110.257 -13.518,204.74 -40.555,283.447c-26.92,78.367 -59.317,117.551 -97.191,117.551c-37.758,0 -70.155,-39.184 -97.192,-117.551c-27.036,-78.707 -40.554,-173.19 -40.554,-283.447c0,-109.919 13.518,-204.062 40.554,-282.429c27.037,-78.707 59.434,-118.061 97.192,-118.061c37.641,0 69.98,39.354 97.016,118.061c27.153,79.046 40.73,173.189 40.73,282.429ZM2406.27,1710.22c0,-65.137 -8.157,-121.453 -24.472,-168.949c-16.315,-47.495 -35.719,-71.243 -58.21,-71.243c-22.608,0 -42.07,23.748 -58.385,71.243c-16.199,47.157 -24.298,103.473 -24.298,168.949c0,66.494 8.099,123.319 24.298,170.475c16.198,46.817 35.66,70.226 58.385,70.226c22.608,0 42.069,-23.409 58.384,-70.226c16.199,-47.156 24.298,-103.981 24.298,-170.475ZM2351.21,1710.22c0,22.051 -2.739,41.05 -8.216,56.995c-5.361,15.605 -11.828,23.408 -19.403,23.408c-7.575,0 -14.043,-7.803 -19.404,-23.408c-5.36,-15.606 -8.041,-34.604 -8.041,-56.995c0,-21.373 2.739,-40.032 8.216,-55.977c5.477,-15.945 11.887,-23.918 19.229,-23.918c7.341,0 13.751,7.973 19.228,23.918c5.594,15.945 8.391,34.604 8.391,55.977Z" style="fill:#fff;fill-rule:nonzero;"/><path d="M2757.28,1710.22c0,110.257 -13.518,204.74 -40.555,283.447c-26.92,78.367 -59.317,117.551 -97.191,117.551c-37.758,0 -70.155,-39.184 -97.191,-117.551c-26.92,-78.707 -40.38,-173.19 -40.38,-283.447l0,-400.49l55.063,0l0,400.49c0,66.494 8.041,123.319 24.123,170.475c16.199,46.817 35.66,70.226 58.385,70.226c22.841,0 42.303,-23.409 58.385,-70.226c16.198,-47.156 24.298,-103.981 24.298,-170.475l0,-400.49l55.063,0l0,400.49ZM2647.15,1710.22c0,22.051 -2.738,41.05 -8.216,56.995c-5.36,15.605 -11.828,23.408 -19.403,23.408c-7.575,0 -14.043,-7.803 -19.403,-23.408c-5.361,-15.606 -8.041,-34.604 -8.041,-56.995c0,-21.373 2.738,-40.032 8.215,-55.977c5.478,-15.945 11.887,-23.918 19.229,-23.918c7.342,0 13.751,7.973 19.229,23.918c5.593,15.945 8.39,34.604 8.39,55.977Z" style="fill:#fff;fill-rule:nonzero;"/><path d="M3060.22,1470.02l-192.81,0c-7.458,0 -13.926,7.972 -19.403,23.917c-5.361,15.606 -8.041,34.265 -8.041,55.977c0,22.391 2.68,41.389 8.041,56.995c5.36,15.606 11.828,23.408 19.403,23.408l0,160.298c-22.608,0 -42.011,-23.408 -58.21,-70.226c-16.198,-47.156 -24.298,-103.981 -24.298,-170.475c0,-66.154 8.041,-122.64 24.123,-169.457c16.199,-47.157 35.66,-70.735 58.385,-70.735l192.81,0l0,160.298ZM2950.09,1710.22c0,22.051 -2.739,41.05 -8.216,56.995c-5.361,15.605 -11.829,23.408 -19.403,23.408c-7.575,0 -14.043,-7.803 -19.404,-23.408c-5.36,-15.606 -8.041,-34.604 -8.041,-56.995c0,-21.373 2.739,-40.032 8.216,-55.977c5.477,-15.945 11.887,-23.918 19.229,-23.918c7.341,0 13.751,7.973 19.228,23.918c5.594,15.945 8.391,34.604 8.391,55.977ZM3060.22,1870.51c0,66.494 -8.1,123.319 -24.298,170.476c-16.082,46.817 -35.486,70.225 -58.21,70.225l-192.81,0l0,-160.297l192.81,0c7.458,0 13.868,-7.803 19.228,-23.409c5.478,-15.945 8.216,-34.943 8.216,-56.995c0,-21.373 -2.738,-40.032 -8.216,-55.977c-5.36,-15.266 -11.77,-23.238 -19.228,-23.917l0,-160.298c22.724,0 42.128,23.579 58.21,70.735c16.198,46.817 24.298,103.303 24.298,169.457Z" style="fill:#fff;fill-rule:nonzero;"/><path d="M3356.33,1710.22c0,21.373 -2.797,40.201 -8.391,56.486c-5.477,15.945 -11.887,23.917 -19.228,23.917c-7.575,0 -14.043,-7.803 -19.404,-23.408c-5.36,-15.606 -8.041,-34.604 -8.041,-56.995c0,-21.712 2.681,-40.371 8.041,-55.977c5.477,-15.945 11.945,-23.918 19.404,-23.918c7.341,0 13.751,7.973 19.228,23.918c5.594,15.945 8.391,34.604 8.391,55.977ZM3356.33,2111.21l-137.746,0c-37.758,0 -70.155,-39.184 -97.192,-117.551c-27.036,-78.707 -40.554,-173.19 -40.554,-283.447c0,-109.919 13.518,-204.062 40.554,-282.429c27.037,-78.707 59.434,-118.061 97.192,-118.061l137.746,0l0,160.298l-137.746,0c-17.248,0 -33.097,14.927 -47.547,44.781c-14.334,29.515 -24.473,68.021 -30.416,115.516l133.026,0l0,160.298l-133.026,0c5.943,47.496 16.082,86.171 30.416,116.025c14.45,29.515 30.299,44.273 47.547,44.273l137.746,0l0,160.297Z" style="fill:#fff;fill-rule:nonzero;"/></g></svg>